<svg width="260" height="73" viewBox="0 0 260 73" fill="none" xmlns="http://www.w3.org/2000/svg">
<path d="M72.4258 50.1209L81.6158 23.7109H85.8258L95.0158 50.1209H90.3058L88.5058 44.6509H78.9758L77.1758 50.1209H72.4258ZM80.1958 40.8209H87.2358L83.7158 30.1409L80.1958 40.8209Z" fill="white"/>
<path d="M112.746 50.1209L107.656 39.4009H102.526V50.1209H98.0859V23.7109H107.076C113.166 23.7109 116.796 26.3509 116.796 31.5909C116.796 35.2309 115.076 37.5609 112.016 38.6709L117.646 50.1109H112.746V50.1209ZM106.776 35.5809C110.526 35.5809 112.366 34.5809 112.366 31.6009C112.366 28.6209 110.526 27.5809 106.776 27.5809H102.526V35.5809H106.776Z" fill="white"/>
<path d="M134.986 31.9111C134.296 28.6911 132.576 27.2411 129.666 27.2411C126.146 27.2411 124.226 29.5411 124.226 35.2411V38.6111C124.226 44.2411 126.136 46.6111 129.666 46.6111C132.686 46.6111 134.296 45.1611 134.986 41.9411H139.236C138.356 47.8711 134.906 50.4811 129.666 50.4811C123.776 50.4811 119.786 46.9211 119.786 38.6111V35.2411C119.786 26.9311 123.766 23.3711 129.666 23.3711C134.906 23.3711 138.396 26.1611 139.276 31.9111H134.986Z" fill="white"/>
<path d="M147.736 34.5507H157.846V23.7207H162.286V50.1307H157.846V38.3807H147.736V50.1307H143.296V23.7207H147.736V34.5507Z" fill="white"/>
<path d="M165.086 50.1209L174.276 23.7109H178.486L187.676 50.1209H182.966L181.166 44.6509H171.636L169.836 50.1209H165.086ZM172.846 40.8209H179.886L176.366 30.1409L172.846 40.8209Z" fill="white"/>
<path d="M195.496 50.1214H191.056V23.4814H195.496V50.1214Z" fill="white"/>
<path d="M203.656 23.7109L210.166 43.0409L216.746 23.7109H221.606L212.226 50.1209H208.166L198.786 23.7109H203.646H203.656Z" fill="white"/>
<path d="M241.246 23.7109V27.5809H229.496V34.5509H240.096V38.3809H229.496V46.3009H241.246V50.1309H225.056V23.7209H241.246V23.7109Z" fill="white"/>
<path d="M44.8456 40.031C46.8449 40.031 48.4656 38.4103 48.4656 36.411C48.4656 34.4117 46.8449 32.791 44.8456 32.791C42.8463 32.791 41.2256 34.4117 41.2256 36.411C41.2256 38.4103 42.8463 40.031 44.8456 40.031Z" fill="white"/>
<path d="M59.5856 30.7409C58.3956 30.2209 57.0355 30.5309 55.9356 30.4109C54.0756 29.9609 50.3056 28.6209 48.3856 25.3809C48.3656 25.3509 48.3456 25.3109 48.3156 25.2709C47.9856 24.6909 47.7156 24.0509 47.5256 23.3509C47.3956 22.7209 47.3956 22.2209 47.3956 22.0909C47.3956 18.8009 45.1056 15.8409 41.7556 15.1509C37.9256 14.3509 34.1655 16.8109 33.3655 20.6409C33.0255 22.2509 33.2656 23.8409 33.9356 25.2109C34.0056 25.5009 34.1256 25.8309 34.2956 26.2209C37.1256 32.6809 32.0356 36.1709 29.2856 37.3609C24.4756 37.7109 20.2755 41.2009 19.2355 46.1609C17.9855 52.1609 21.8356 58.0309 27.8256 59.2809C33.8256 60.5309 39.7556 56.7009 40.9456 50.6909C42.1356 44.7309 38.1256 40.4909 38.0856 40.3009C37.4356 39.1709 37.0656 37.8709 37.0656 36.4709C37.0656 32.5009 40.0756 29.2309 43.9456 28.8209C43.9556 28.8209 43.9656 28.8209 43.9756 28.8209C44.2356 28.7909 44.4956 28.7809 44.7656 28.7809C48.7456 28.7809 52.0155 31.8009 52.4255 35.6709C52.4355 35.7009 52.4556 35.7409 52.4656 35.7709C52.5956 37.5909 53.7055 39.2809 55.4955 40.0709C58.0655 41.2009 61.0656 40.0309 62.1956 37.4509C63.3256 34.8809 62.1556 31.8809 59.5756 30.7509L59.5856 30.7409Z" fill="white"/>
</svg>