<svg width="760" height="122" viewBox="0 0 760 122" fill="none" xmlns="http://www.w3.org/2000/svg">
<path d="M0 120.362L41.3506 1.5293H60.2937L101.644 120.362H80.4515L72.3524 95.7492H29.472L21.3727 120.362H0ZM34.9614 78.5161H66.6381L50.7997 30.4612L34.9614 78.5161Z" fill="white" style="fill:white;fill-opacity:1;"/>
<path d="M181.465 120.362L158.563 72.1267H135.48V120.362H115.502V1.5293H155.953C183.355 1.5293 199.689 13.408 199.689 36.9855C199.689 53.3638 191.949 63.8476 178.181 68.8421L203.513 120.317H181.465V120.362ZM154.603 54.9386C171.477 54.9386 179.756 50.4391 179.756 37.0305C179.756 23.6219 171.477 18.9424 154.603 18.9424H135.48V54.9386H154.603Z" fill="white" style="fill:white;fill-opacity:1;"/>
<path d="M281.536 38.4259C278.431 23.9374 270.692 17.4131 257.598 17.4131C241.76 17.4131 233.121 27.762 233.121 53.4093V68.5726C233.121 93.9049 241.715 104.569 257.598 104.569C271.187 104.569 278.431 98.0445 281.536 83.556H300.659C296.699 110.238 281.176 121.982 257.598 121.982C231.096 121.982 213.143 105.964 213.143 68.5726V53.4093C213.143 16.0183 231.051 0 257.598 0C281.176 0 296.879 12.5537 300.839 38.4259H281.536Z" fill="white" style="fill:white;fill-opacity:1;"/>
<path d="M338.904 50.303H384.394V1.57324H404.372V120.406H384.394V67.5362H338.904V120.406H318.926V1.57324H338.904V50.303Z" fill="white" style="fill:white;fill-opacity:1;"/>
<path d="M416.927 120.362L458.277 1.5293H477.221L518.571 120.362H497.378L489.279 95.7492H446.399L438.3 120.362H416.927ZM451.888 78.5161H483.565L467.726 30.4612L451.888 78.5161Z" fill="white" style="fill:white;fill-opacity:1;"/>
<path d="M553.8 120.364H533.822V0.496582H553.8V120.364Z" fill="white" style="fill:white;fill-opacity:1;"/>
<path d="M590.518 1.5293L619.81 88.505L649.417 1.5293H671.285L629.079 120.362H610.811L568.605 1.5293H590.473H590.518Z" fill="white" style="fill:white;fill-opacity:1;"/>
<path d="M759.653 1.5293V18.9424H706.784V50.3041H754.479V67.5373H706.784V103.173H759.653V120.407H686.806V1.5743H759.653V1.5293Z" fill="white" style="fill:white;fill-opacity:1;"/>
</svg>
