<svg width="223" height="46" viewBox="0 0 223 46" fill="none" xmlns="http://www.w3.org/2000/svg">
<path d="M53.9102 35.7899L63.1002 9.37988H67.3102L76.5002 35.7899H71.7902L69.9902 30.3199H60.4602L58.6602 35.7899H53.9102ZM61.6802 26.4899H68.7202L65.2002 15.8099L61.6802 26.4899Z" fill="white"/>
<path d="M94.2303 35.7899L89.1403 25.0699H84.0103V35.7899H79.5703V9.37988H88.5603C94.6503 9.37988 98.2803 12.0199 98.2803 17.2599C98.2803 20.8999 96.5603 23.2299 93.5003 24.3399L99.1303 35.7799H94.2303V35.7899ZM88.2603 21.2499C92.0103 21.2499 93.8503 20.2499 93.8503 17.2699C93.8503 14.2899 92.0103 13.2499 88.2603 13.2499H84.0103V21.2499H88.2603Z" fill="white"/>
<path d="M116.47 17.58C115.78 14.36 114.06 12.91 111.15 12.91C107.63 12.91 105.71 15.21 105.71 20.91V24.28C105.71 29.91 107.62 32.28 111.15 32.28C114.17 32.28 115.78 30.83 116.47 27.61H120.72C119.84 33.54 116.39 36.15 111.15 36.15C105.26 36.15 101.27 32.59 101.27 24.28V20.91C101.27 12.6 105.25 9.04004 111.15 9.04004C116.39 9.04004 119.88 11.83 120.76 17.58H116.47Z" fill="white"/>
<path d="M129.22 20.2197H139.33V9.38965H143.77V35.7997H139.33V24.0497H129.22V35.7997H124.78V9.38965H129.22V20.2197Z" fill="white"/>
<path d="M146.57 35.7899L155.76 9.37988H159.97L169.16 35.7899H164.45L162.65 30.3199H153.12L151.32 35.7899H146.57ZM154.33 26.4899H161.37L157.85 15.8099L154.33 26.4899Z" fill="#F64848"/>
<path d="M176.98 35.7904H172.54V9.15039H176.98V35.7904Z" fill="#F64848"/>
<path d="M185.141 9.37988L191.651 28.7099L198.23 9.37988H203.091L193.711 35.7899H189.651L180.271 9.37988H185.13H185.141Z" fill="white"/>
<path d="M222.73 9.37988V13.2499H210.98V20.2199H221.58V24.0499H210.98V31.9699H222.73V35.7999H206.54V9.38988H222.73V9.37988Z" fill="white"/>
<path d="M26.33 25.7C28.3292 25.7 29.95 24.0792 29.95 22.08C29.95 20.0807 28.3292 18.46 26.33 18.46C24.3307 18.46 22.71 20.0807 22.71 22.08C22.71 24.0792 24.3307 25.7 26.33 25.7Z" fill="#F64848"/>
<path d="M41.07 16.4099C39.88 15.8899 38.5199 16.1999 37.4199 16.0799C35.5599 15.6299 31.7899 14.2899 29.8699 11.0499C29.8499 11.0199 29.8299 10.9799 29.7999 10.9399C29.4699 10.3599 29.2 9.71987 29.01 9.01987C28.88 8.38987 28.8799 7.88988 28.8799 7.75988C28.8799 4.46988 26.5899 1.50988 23.2399 0.819877C19.4099 0.0198767 15.6499 2.47987 14.8499 6.30987C14.5099 7.91987 14.7499 9.50987 15.4199 10.8799C15.4899 11.1699 15.61 11.4999 15.78 11.8899C18.61 18.3499 13.52 21.8399 10.77 23.0299C5.95996 23.3799 1.75991 26.8699 0.719914 31.8299C-0.530086 37.8299 3.31994 43.6999 9.30994 44.9499C15.3099 46.1999 21.2399 42.3699 22.4299 36.3599C23.6199 30.3999 19.61 26.1599 19.57 25.9699C18.92 24.8399 18.5499 23.5399 18.5499 22.1399C18.5499 18.1699 21.5599 14.8999 25.4299 14.4899C25.4399 14.4899 25.45 14.4899 25.46 14.4899C25.72 14.4599 25.9799 14.4499 26.2499 14.4499C30.2299 14.4499 33.4999 17.4699 33.9099 21.3399C33.9199 21.3699 33.94 21.4099 33.95 21.4399C34.08 23.2599 35.1899 24.9499 36.9799 25.7399C39.5499 26.8699 42.5499 25.6999 43.6799 23.1199C44.8099 20.5499 43.6399 17.5499 41.0599 16.4199L41.07 16.4099Z" fill="white"/>
</svg>
