<svg width="599" height="78" viewBox="0 0 599 78" fill="none" xmlns="http://www.w3.org/2000/svg">
<path d="M113.523 4.54227C109.992 4.82427 106.234 5.34433 102.314 6.07386C111.805 7.92248 111.626 15.05 101.226 24.5564C95.4361 10.1705 81.2674 0 64.6941 0C42.9729 0 25.3644 17.4609 25.3644 39C25.3644 44.0954 26.3602 48.9572 28.1523 53.4189C28.0588 52.4999 28.01 51.5677 28.01 50.6242C28.01 35.4341 40.4281 23.1201 55.7466 23.1201C66.7118 23.1201 76.1628 29.4459 80.6648 38.6036C64.01 47.6243 43.8409 54.5725 29.1923 55.7425C16.7671 56.7349 11.234 53.3361 12.9502 47.3408C-7.57136 65.1861 -3.43927 77.5521 23.469 75.4029C40.2661 74.0613 62.1845 67.3612 82.4464 58.0833C79.5565 68.2534 70.9061 76.0203 60.2087 77.7401C61.6816 77.906 63.1765 78 64.6941 78C83.5292 78 99.2633 64.8674 103.114 47.3347C109.347 43.6545 115.112 39.7913 120.122 35.8491C144.99 16.2815 142.035 2.26496 113.523 4.54227Z" fill="black" style="fill:black;fill-opacity:1;"/>
<path d="M307.424 2.41634H258.743V15.2374H277.363V75.8185H288.802V15.2374H307.424V2.41634Z" fill="black" style="fill:black;fill-opacity:1;"/>
<path d="M355.56 1.90034H345.268L319.065 75.8184H330.737L336.774 58.346H363.801L369.755 75.8184H381.763L355.681 2.24429L355.56 1.90034ZM359.667 46.0448H340.91L350.249 19.1867L359.667 46.0448Z" fill="black" style="fill:black;fill-opacity:1;"/>
<path d="M448.224 25.9888V25.7804C448.224 19.4821 446.504 13.9729 443.241 9.84153C439.212 4.9838 433.216 2.41634 425.898 2.41634H399.209V75.8185H410.562V50.5911H422.661L436.94 75.5575L437.088 75.8185H450.532L434.539 48.1753C443.37 44.7824 448.224 36.9303 448.224 25.9888ZM436.704 26.5047V26.7131C436.704 33.7478 432.166 38.2919 425.143 38.2919H410.562V15.0331H425.058C432.568 15.0331 436.704 19.1079 436.704 26.5047Z" fill="black" style="fill:black;fill-opacity:1;"/>
<path d="M524.255 44.5942C524.255 57.1948 519.195 64.1345 510.01 64.1345C500.903 64.1345 495.679 56.8246 495.679 44.0804V2.41634H484.325V44.5942C484.325 65.1602 493.626 76.9555 509.842 76.9555C526.216 76.9555 535.605 64.9356 535.605 43.9772V2.41634H524.255V44.5942Z" fill="black" style="fill:black;fill-opacity:1;"/>
<path d="M575.966 2.41634H552.577V75.8185H563.65V52.5596H574.792C589.375 52.5596 598.798 42.658 598.798 27.3342V27.1258C598.798 12.1156 589.835 2.41634 575.966 2.41634ZM563.65 15.0331H575.13C582.851 15.0331 587.277 19.555 587.277 27.4374V27.6397C587.277 35.0629 582.395 40.0501 575.13 40.0501H563.65V15.0331Z" fill="black" style="fill:black;fill-opacity:1;"/>
<path d="M219.27 12.3543C222.423 12.3543 225.087 13.2061 227.189 14.8853C229.31 16.5767 230.821 18.7537 231.681 21.3556L231.849 21.8634L242.847 17.8494L242.699 17.3779C241.728 14.2743 240.221 11.4782 238.22 9.0686C236.207 6.576 233.609 4.60945 230.513 3.22962C227.471 1.77898 223.867 1.04455 219.809 1.04455C212.594 1.04455 206.955 2.97672 203.054 6.78238C199.144 10.5294 197.161 15.8585 197.161 22.618C197.161 26.2092 197.843 29.3675 199.192 32.0159C200.598 34.6521 202.518 36.8675 204.906 38.6035C207.331 40.3232 210.063 41.6484 213.035 42.5447L220.737 44.7823C223.873 45.7049 226.396 47.0342 228.243 48.7418C230.056 50.3482 230.936 52.3836 230.936 54.9652C230.936 57.8119 229.886 60.0414 227.725 61.7834C225.561 63.5294 222.564 64.4156 218.833 64.4156C215.625 64.3488 212.899 63.3979 210.733 61.5872C208.554 59.7622 207.07 57.6196 206.328 55.2181L206.168 54.7062L195 58.6009L195.117 59.0602C195.664 61.2048 196.623 63.313 197.976 65.3382C199.368 67.2643 201.12 69.0467 203.192 70.637C205.322 72.2252 207.785 73.4836 210.512 74.3779C213.298 75.2721 216.395 75.7253 219.72 75.7253C224.618 75.7253 228.828 74.8149 232.231 73.0223C235.711 71.2197 238.376 68.6846 240.15 65.4899C241.918 62.3094 242.815 58.5968 242.815 54.4553C242.815 49.7432 241.208 45.3893 238.038 41.5149C234.878 37.6505 230.388 34.8888 224.695 33.3067L216.992 31.1742C214.453 30.4519 212.414 29.3958 210.947 28.0504C209.561 26.6645 208.859 24.6999 208.859 22.2114C208.859 19.1179 209.769 16.6759 211.56 14.9622C213.421 13.2324 216.017 12.3543 219.27 12.3543Z" fill="black" style="fill:black;fill-opacity:1;"/>
</svg>
