<svg id="visual" viewBox="0 0 900 600" width="900" height="600" xmlns="http://www.w3.org/2000/svg" xmlns:xlink="http://www.w3.org/1999/xlink" version="1.1"><rect x="0" y="0" width="900" height="600" fill="#131516"></rect><path d="M0 395L21.5 399C43 403 86 411 128.8 409.5C171.7 408 214.3 397 257.2 394.2C300 391.3 343 396.7 385.8 396.3C428.7 396 471.3 390 514.2 395.8C557 401.7 600 419.3 642.8 427.3C685.7 435.3 728.3 433.7 771.2 421.8C814 410 857 388 878.5 377L900 366L900 601L878.5 601C857 601 814 601 771.2 601C728.3 601 685.7 601 642.8 601C600 601 557 601 514.2 601C471.3 601 428.7 601 385.8 601C343 601 300 601 257.2 601C214.3 601 171.7 601 128.8 601C86 601 43 601 21.5 601L0 601Z" fill="#575353"></path><path d="M0 393L21.5 402.3C43 411.7 86 430.3 128.8 436.3C171.7 442.3 214.3 435.7 257.2 437.5C300 439.3 343 449.7 385.8 451C428.7 452.3 471.3 444.7 514.2 446.3C557 448 600 459 642.8 456.5C685.7 454 728.3 438 771.2 429.2C814 420.3 857 418.7 878.5 417.8L900 417L900 601L878.5 601C857 601 814 601 771.2 601C728.3 601 685.7 601 642.8 601C600 601 557 601 514.2 601C471.3 601 428.7 601 385.8 601C343 601 300 601 257.2 601C214.3 601 171.7 601 128.8 601C86 601 43 601 21.5 601L0 601Z" fill="#736e6f"></path><path d="M0 489L21.5 486.5C43 484 86 479 128.8 476.3C171.7 473.7 214.3 473.3 257.2 476.7C300 480 343 487 385.8 483.3C428.7 479.7 471.3 465.3 514.2 458.7C557 452 600 453 642.8 459.2C685.7 465.3 728.3 476.7 771.2 479.2C814 481.7 857 475.3 878.5 472.2L900 469L900 601L878.5 601C857 601 814 601 771.2 601C728.3 601 685.7 601 642.8 601C600 601 557 601 514.2 601C471.3 601 428.7 601 385.8 601C343 601 300 601 257.2 601C214.3 601 171.7 601 128.8 601C86 601 43 601 21.5 601L0 601Z" fill="#918a8c"></path><path d="M0 488L21.5 489.2C43 490.3 86 492.7 128.8 501.3C171.7 510 214.3 525 257.2 523.5C300 522 343 504 385.8 496.3C428.7 488.7 471.3 491.3 514.2 498.5C557 505.7 600 517.3 642.8 518.2C685.7 519 728.3 509 771.2 505C814 501 857 503 878.5 504L900 505L900 601L878.5 601C857 601 814 601 771.2 601C728.3 601 685.7 601 642.8 601C600 601 557 601 514.2 601C471.3 601 428.7 601 385.8 601C343 601 300 601 257.2 601C214.3 601 171.7 601 128.8 601C86 601 43 601 21.5 601L0 601Z" fill="#b0a7aa"></path><path d="M0 552L21.5 549.7C43 547.3 86 542.7 128.8 539C171.7 535.3 214.3 532.7 257.2 538C300 543.3 343 556.7 385.8 563.2C428.7 569.7 471.3 569.3 514.2 565.8C557 562.3 600 555.7 642.8 553.7C685.7 551.7 728.3 554.3 771.2 557.7C814 561 857 565 878.5 567L900 569L900 601L878.5 601C857 601 814 601 771.2 601C728.3 601 685.7 601 642.8 601C600 601 557 601 514.2 601C471.3 601 428.7 601 385.8 601C343 601 300 601 257.2 601C214.3 601 171.7 601 128.8 601C86 601 43 601 21.5 601L0 601Z" fill="#cfc6ca"></path></svg>