<svg id="visual" viewBox="0 0 960 540" width="960" height="540" xmlns="http://www.w3.org/2000/svg" xmlns:xlink="http://www.w3.org/1999/xlink" version="1.1"><g stroke-width="1" stroke-linejoin="bevel"><path d="M445.7 263L520.3 213L394.7 219Z" fill="#242627" stroke="#242627"></path><path d="M520.3 213L402.7 85L394.7 219Z" fill="#202223" stroke="#202223"></path><path d="M445.7 263L538.3 306L520.3 213Z" fill="#262829" stroke="#262829"></path><path d="M636 194L545.3 76L520.3 213Z" fill="#222425" stroke="#222425"></path><path d="M520.3 213L545.3 76L402.7 85Z" fill="#27292a" stroke="#27292a"></path><path d="M402.7 85L306 164L394.7 219Z" fill="#202223" stroke="#202223"></path><path d="M284 304L446.7 366L445.7 263Z" fill="#202223" stroke="#202223"></path><path d="M284 304L445.7 263L394.7 219Z" fill="#292b2c" stroke="#292b2c"></path><path d="M445.7 263L446.7 366L538.3 306Z" fill="#232526" stroke="#232526"></path><path d="M446.7 366L542.3 346L538.3 306Z" fill="#202223" stroke="#202223"></path><path d="M652 242L636 194L520.3 213Z" fill="#1f2122" stroke="#1f2122"></path><path d="M652 242L520.3 213L538.3 306Z" fill="#232526" stroke="#232526"></path><path d="M402.7 85L283 108L306 164Z" fill="#262829" stroke="#262829"></path><path d="M545.3 76L449.7 0L402.7 85Z" fill="#292b2c" stroke="#292b2c"></path><path d="M402.7 85L351 0L283 108Z" fill="#202223" stroke="#202223"></path><path d="M660 341L652 242L538.3 306Z" fill="#292b2c" stroke="#292b2c"></path><path d="M236.3 300L284 304L306 164Z" fill="#1d1f20" stroke="#1d1f20"></path><path d="M306 164L284 304L394.7 219Z" fill="#1c1e1f" stroke="#1c1e1f"></path><path d="M545.3 76L533.3 0L449.7 0Z" fill="#27292a" stroke="#27292a"></path><path d="M648 0L533.3 0L545.3 76Z" fill="#222425" stroke="#222425"></path><path d="M427.7 465L510.3 410L446.7 366Z" fill="#1d1f20" stroke="#1d1f20"></path><path d="M446.7 366L510.3 410L542.3 346Z" fill="#1f2122" stroke="#1f2122"></path><path d="M542.3 346L660 341L538.3 306Z" fill="#2a2c2d" stroke="#2a2c2d"></path><path d="M449.7 0L351 0L402.7 85Z" fill="#27292a" stroke="#27292a"></path><path d="M207.3 154L236.3 300L306 164Z" fill="#1d1f20" stroke="#1d1f20"></path><path d="M284 304L293 380L446.7 366Z" fill="#202223" stroke="#202223"></path><path d="M236.3 300L293 380L284 304Z" fill="#27292a" stroke="#27292a"></path><path d="M739.7 185L675 81L636 194Z" fill="#27292a" stroke="#27292a"></path><path d="M636 194L675 81L545.3 76Z" fill="#222425" stroke="#222425"></path><path d="M670 442L660 341L542.3 346Z" fill="#292b2c" stroke="#292b2c"></path><path d="M652 242L739.7 185L636 194Z" fill="#202223" stroke="#202223"></path><path d="M195.3 98L207.3 154L283 108Z" fill="#2a2c2d" stroke="#2a2c2d"></path><path d="M283 108L207.3 154L306 164Z" fill="#292b2c" stroke="#292b2c"></path><path d="M318 437L427.7 465L446.7 366Z" fill="#262829" stroke="#262829"></path><path d="M510.3 410L670 442L542.3 346Z" fill="#242627" stroke="#242627"></path><path d="M222.3 413L318 437L293 380Z" fill="#222425" stroke="#222425"></path><path d="M293 380L318 437L446.7 366Z" fill="#2a2c2d" stroke="#2a2c2d"></path><path d="M675 81L648 0L545.3 76Z" fill="#232526" stroke="#232526"></path><path d="M184.3 0L195.3 98L283 108Z" fill="#222425" stroke="#222425"></path><path d="M106.7 306L207.3 356L236.3 300Z" fill="#202223" stroke="#202223"></path><path d="M783.7 248L739.7 185L652 242Z" fill="#27292a" stroke="#27292a"></path><path d="M675 81L770.7 0L648 0Z" fill="#2a2c2d" stroke="#2a2c2d"></path><path d="M133.7 156L236.3 300L207.3 154Z" fill="#1f2122" stroke="#1f2122"></path><path d="M236.3 300L207.3 356L293 380Z" fill="#1c1e1f" stroke="#1c1e1f"></path><path d="M739.7 185L730.7 89L675 81Z" fill="#1c1e1f" stroke="#1c1e1f"></path><path d="M207.3 356L222.3 413L293 380Z" fill="#262829" stroke="#262829"></path><path d="M291 540L461.7 540L427.7 465Z" fill="#202223" stroke="#202223"></path><path d="M563.3 540L670 442L510.3 410Z" fill="#1d1f20" stroke="#1d1f20"></path><path d="M660 341L783.7 248L652 242Z" fill="#27292a" stroke="#27292a"></path><path d="M195.3 98L133.7 156L207.3 154Z" fill="#1d1f20" stroke="#1d1f20"></path><path d="M207.3 356L122.7 424L222.3 413Z" fill="#242627" stroke="#242627"></path><path d="M753.7 382L783.7 248L660 341Z" fill="#1c1e1f" stroke="#1c1e1f"></path><path d="M739.7 185L842.3 188L730.7 89Z" fill="#27292a" stroke="#27292a"></path><path d="M351 0L184.3 0L283 108Z" fill="#2a2c2d" stroke="#2a2c2d"></path><path d="M195.3 98L111.7 61L133.7 156Z" fill="#222425" stroke="#222425"></path><path d="M291 540L427.7 465L318 437Z" fill="#242627" stroke="#242627"></path><path d="M427.7 465L461.7 540L510.3 410Z" fill="#27292a" stroke="#27292a"></path><path d="M670 442L753.7 382L660 341Z" fill="#232526" stroke="#232526"></path><path d="M461.7 540L563.3 540L510.3 410Z" fill="#27292a" stroke="#27292a"></path><path d="M670 442L724.7 458L753.7 382Z" fill="#242627" stroke="#242627"></path><path d="M133.7 156L106.7 306L236.3 300Z" fill="#262829" stroke="#262829"></path><path d="M184.3 0L111.7 61L195.3 98Z" fill="#27292a" stroke="#27292a"></path><path d="M133.7 156L0 192L106.7 306Z" fill="#1f2122" stroke="#1f2122"></path><path d="M855.3 0L770.7 0L880.3 52Z" fill="#1c1e1f" stroke="#1c1e1f"></path><path d="M730.7 89L770.7 0L675 81Z" fill="#222425" stroke="#222425"></path><path d="M621 540L724.7 458L670 442Z" fill="#1c1e1f" stroke="#1c1e1f"></path><path d="M563.3 540L621 540L670 442Z" fill="#262829" stroke="#262829"></path><path d="M238.3 540L318 437L222.3 413Z" fill="#1f2122" stroke="#1f2122"></path><path d="M238.3 540L291 540L318 437Z" fill="#1c1e1f" stroke="#1c1e1f"></path><path d="M864.3 307L842.3 188L783.7 248Z" fill="#222425" stroke="#222425"></path><path d="M783.7 248L842.3 188L739.7 185Z" fill="#232526" stroke="#232526"></path><path d="M864.3 307L783.7 248L753.7 382Z" fill="#1c1e1f" stroke="#1c1e1f"></path><path d="M76.7 359L122.7 424L207.3 356Z" fill="#1d1f20" stroke="#1d1f20"></path><path d="M122.7 424L238.3 540L222.3 413Z" fill="#2a2c2d" stroke="#2a2c2d"></path><path d="M106.7 306L76.7 359L207.3 356Z" fill="#27292a" stroke="#27292a"></path><path d="M0 268L76.7 359L106.7 306Z" fill="#232526" stroke="#232526"></path><path d="M869.3 325L864.3 307L753.7 382Z" fill="#262829" stroke="#262829"></path><path d="M184.3 0L76.7 0L111.7 61Z" fill="#242627" stroke="#242627"></path><path d="M0 115L0 192L133.7 156Z" fill="#27292a" stroke="#27292a"></path><path d="M836.3 472L869.3 325L753.7 382Z" fill="#292b2c" stroke="#292b2c"></path><path d="M880.3 52L730.7 89L842.3 188Z" fill="#27292a" stroke="#27292a"></path><path d="M880.3 52L770.7 0L730.7 89Z" fill="#262829" stroke="#262829"></path><path d="M880.3 52L842.3 188L960 102Z" fill="#292b2c" stroke="#292b2c"></path><path d="M960 167L842.3 188L960 263Z" fill="#1c1e1f" stroke="#1c1e1f"></path><path d="M724.7 458L836.3 472L753.7 382Z" fill="#1f2122" stroke="#1f2122"></path><path d="M621 540L758.7 540L724.7 458Z" fill="#242627" stroke="#242627"></path><path d="M0 115L133.7 156L111.7 61Z" fill="#222425" stroke="#222425"></path><path d="M0 192L0 268L106.7 306Z" fill="#1d1f20" stroke="#1d1f20"></path><path d="M76.7 359L0 443L122.7 424Z" fill="#242627" stroke="#242627"></path><path d="M76.7 0L0 115L111.7 61Z" fill="#1d1f20" stroke="#1d1f20"></path><path d="M758.7 540L836.3 472L724.7 458Z" fill="#222425" stroke="#222425"></path><path d="M0 268L0 373L76.7 359Z" fill="#222425" stroke="#222425"></path><path d="M122.7 424L99.7 540L238.3 540Z" fill="#1c1e1f" stroke="#1c1e1f"></path><path d="M0 443L99.7 540L122.7 424Z" fill="#27292a" stroke="#27292a"></path><path d="M76.7 0L0 0L0 115Z" fill="#2a2c2d" stroke="#2a2c2d"></path><path d="M960 263L864.3 307L869.3 325Z" fill="#222425" stroke="#222425"></path><path d="M960 263L842.3 188L864.3 307Z" fill="#232526" stroke="#232526"></path><path d="M880.3 52L960 0L855.3 0Z" fill="#27292a" stroke="#27292a"></path><path d="M960 390L960 263L869.3 325Z" fill="#222425" stroke="#222425"></path><path d="M960 167L960 102L842.3 188Z" fill="#1d1f20" stroke="#1d1f20"></path><path d="M0 373L0 443L76.7 359Z" fill="#232526" stroke="#232526"></path><path d="M758.7 540L856.3 540L836.3 472Z" fill="#262829" stroke="#262829"></path><path d="M836.3 472L960 390L869.3 325Z" fill="#242627" stroke="#242627"></path><path d="M960 467L960 390L836.3 472Z" fill="#1f2122" stroke="#1f2122"></path><path d="M960 102L960 0L880.3 52Z" fill="#202223" stroke="#202223"></path><path d="M0 443L0 540L99.7 540Z" fill="#2a2c2d" stroke="#2a2c2d"></path><path d="M856.3 540L960 467L836.3 472Z" fill="#242627" stroke="#242627"></path><path d="M856.3 540L960 540L960 467Z" fill="#1f2122" stroke="#1f2122"></path></g></svg>