<svg width="557" height="101" viewBox="0 0 557 101" fill="none" xmlns="http://www.w3.org/2000/svg">
<path d="M556.452 99.1741H511.111C510.746 99.1741 510.563 98.9458 510.563 98.4892L510.7 2.12409C510.7 1.75881 510.883 1.57617 511.248 1.57617H556.315C556.68 1.57617 556.863 1.80447 556.863 2.26107V17.9452C556.863 18.3105 556.68 18.4931 556.315 18.4931H527.549V40.4099H556.315C556.68 40.4099 556.863 40.5925 556.863 40.9578L557 56.8474C557 57.2127 556.817 57.3953 556.452 57.3953H527.549V81.9147H556.452C556.817 81.9147 557 82.143 557 82.5996V98.6262C557 98.9915 556.817 99.1741 556.452 99.1741Z" fill="#37B7C4"/>
<path d="M468.593 99.1741H451.608C451.197 99.1741 450.969 98.9458 450.923 98.4892L431.54 2.12409C431.449 1.75881 431.632 1.57617 432.088 1.57617H447.978C448.343 1.57617 448.572 1.75881 448.663 2.12409L460.169 66.3675L471.401 2.12409C471.493 1.75881 471.721 1.57617 472.086 1.57617H487.771C488.273 1.57617 488.455 1.75881 488.318 2.12409L469.278 98.4892C469.233 98.9458 469.004 99.1741 468.593 99.1741Z" fill="#37B7C4"/>
<path d="M408.952 99.1741H393.063C392.606 99.1741 392.378 98.9458 392.378 98.4892L392.515 2.12409C392.515 1.75881 392.698 1.57617 393.063 1.57617H408.815C409.181 1.57617 409.363 1.75881 409.363 2.12409L409.5 98.4892C409.5 98.9458 409.318 99.1741 408.952 99.1741Z" fill="#F64848"/>
<path d="M313.766 98.4892L331.162 2.12409C331.253 1.75881 331.482 1.57617 331.847 1.57617H352.188C352.554 1.57617 352.782 1.75881 352.873 2.12409L369.585 98.4892C369.63 98.9458 369.448 99.1741 369.037 99.1741H353.49C353.033 99.1741 352.782 98.9458 352.736 98.4892L351.23 88.2157H332.121L330.614 98.4892C330.568 98.9458 330.34 99.1741 329.929 99.1741H314.314C313.948 99.1741 313.766 98.9458 313.766 98.4892ZM341.23 33.8349L334.929 73.2165H348.421L342.668 33.8349L341.846 28.6296L341.23 33.8349Z" fill="#F64848"/>
<path d="M254.33 99.1741H238.44C238.075 99.1741 237.893 98.9458 237.893 98.4892L238.03 2.12409C238.03 1.75881 238.258 1.57617 238.714 1.57617H254.33C254.787 1.57617 255.015 1.75881 255.015 2.12409L254.878 40.2729H275.904V2.12409C275.904 1.75881 276.087 1.57617 276.452 1.57617H292.068C292.525 1.57617 292.753 1.75881 292.753 2.12409L293.027 98.4892C293.027 98.9458 292.799 99.1741 292.342 99.1741H276.589C276.133 99.1741 275.904 98.9458 275.904 98.4892V57.2584H254.878V98.4892C254.878 98.9458 254.695 99.1741 254.33 99.1741Z" fill="#37B7C4"/>
<path d="M186.127 100.543C181.059 100.543 176.425 99.2645 172.224 96.7075C168.069 94.1506 164.759 90.7261 162.293 86.4341C159.873 82.0964 158.663 77.2793 158.663 71.9827L158.8 28.2178C158.8 23.0126 159.987 18.3096 162.362 14.1089C164.736 9.86253 168.001 6.46087 172.156 3.90392C176.356 1.30131 181.014 0 186.127 0C191.333 0 195.967 1.25565 200.031 3.76694C204.14 6.27823 207.405 9.67989 209.825 13.9719C212.291 18.2183 213.523 22.9669 213.523 28.2178V34.6558C213.523 35.0211 213.341 35.2037 212.975 35.2037H197.223C196.858 35.2037 196.675 35.0211 196.675 34.6558V28.2178C196.675 25.1129 195.67 22.4418 193.661 20.2045C191.652 17.9671 189.141 16.8485 186.127 16.8485C182.794 16.8485 180.237 17.99 178.457 20.273C176.676 22.556 175.786 25.2042 175.786 28.2178V71.9827C175.786 75.4072 176.79 78.2153 178.799 80.407C180.808 82.553 183.251 83.626 186.127 83.626C189.141 83.626 191.652 82.4388 193.661 80.0645C195.67 77.6446 196.675 74.9506 196.675 71.9827V65.4762C196.675 65.1109 196.858 64.9283 197.223 64.9283H213.112C213.478 64.9283 213.66 65.1109 213.66 65.4762V71.9827C213.66 77.2336 212.428 82.0279 209.962 86.3656C207.451 90.6576 204.14 94.1049 200.031 96.7075C195.922 99.2645 191.287 100.543 186.127 100.543Z" fill="#37B7C4"/>
<path d="M95.0498 99.1741H79.1602C78.7949 99.1741 78.6123 98.9458 78.6123 98.4892L78.8863 2.12409C78.8863 1.75881 79.0689 1.57617 79.4342 1.57617H107.789C112.857 1.57617 117.514 2.80899 121.761 5.27462C126.007 7.74025 129.386 11.0506 131.897 15.2056C134.454 19.3607 135.733 24.0636 135.733 29.3145C135.733 32.739 135.208 35.8439 134.158 38.6291C133.107 41.4144 131.875 43.7659 130.459 45.6836C129.089 47.6013 127.834 49.0168 126.692 49.9299C131.76 55.5461 134.294 62.144 134.294 69.7235L134.431 98.4892C134.431 98.9458 134.203 99.1741 133.747 99.1741H117.857C117.492 99.1741 117.309 99.0371 117.309 98.7632V69.7235C117.309 66.3447 116.122 63.4224 113.748 60.9568C111.373 58.4912 108.451 57.2584 104.981 57.2584H95.7347L95.5978 98.4892C95.5978 98.9458 95.4151 99.1741 95.0498 99.1741ZM107.789 18.3562H95.7347V40.4099H107.789C110.666 40.4099 113.222 39.3369 115.46 37.1908C117.743 35.0448 118.884 32.4194 118.884 29.3145C118.884 26.3466 117.788 23.7897 115.597 21.6437C113.405 19.452 110.802 18.3562 107.789 18.3562Z" fill="#37B7C4"/>
<path d="M0 98.4892L17.3964 2.12409C17.4877 1.75881 17.716 1.57617 18.0813 1.57617H38.4228C38.788 1.57617 39.0163 1.75881 39.1077 2.12409L55.8192 98.4892C55.8648 98.9458 55.6822 99.1741 55.2712 99.1741H39.7241C39.2675 99.1741 39.0163 98.9458 38.9707 98.4892L37.4639 88.2157H18.3553L16.8485 98.4892C16.8028 98.9458 16.5745 99.1741 16.1636 99.1741H0.547918C0.182639 99.1741 0 98.9458 0 98.4892ZM27.4644 33.8349L21.1633 73.2165H34.6558L28.9027 33.8349L28.0808 28.6296L27.4644 33.8349Z" fill="#37B7C4"/>
</svg>
