<svg width="127" height="129" viewBox="0 0 127 129" fill="none" xmlns="http://www.w3.org/2000/svg">
<path d="M74.7993 72.4746C80.5873 72.4746 85.2793 67.7826 85.2793 61.9947C85.2793 56.2067 80.5873 51.5146 74.7993 51.5146C69.0114 51.5146 64.3193 56.2067 64.3193 61.9947C64.3193 67.7826 69.0114 72.4746 74.7993 72.4746Z" fill="#F64848"/>
<path d="M117.409 45.5848C113.979 44.0848 110.049 44.9748 106.849 44.6248C101.459 43.3248 90.5694 39.4648 85.0094 30.0648C84.9694 29.9748 84.8994 29.8648 84.8194 29.7348C83.8694 28.0648 83.0794 26.2148 82.5194 24.1848C82.1594 22.3648 82.1494 20.9048 82.1494 20.5348C82.1694 6.40477 67.5194 -5.57522 50.0294 2.73478C40.4694 11.0048 39.3194 21.5948 43.2194 29.5448C43.4194 30.3748 43.7594 31.3348 44.2494 32.4648C52.4294 51.1448 37.7094 61.2548 29.7694 64.6748C8.78942 66.2048 -8.16058 88.3248 4.16942 114.595C25.6294 140.065 58.5694 128.065 63.5194 103.225C66.9494 85.9848 55.3594 73.7248 55.2494 73.1848C53.3794 69.9248 52.2994 66.1448 52.2994 62.1248C52.2994 50.6348 61.0094 41.1748 72.1894 39.9848C72.2194 39.9848 72.2494 39.9848 72.2794 39.9748C73.0294 39.8948 73.7894 39.8548 74.5594 39.8548C86.0694 39.8548 95.5394 48.5948 96.6994 59.7948C96.7394 59.8948 96.7794 59.9948 96.8094 60.0948C97.4194 68.5748 105.349 76.0648 117.019 73.2448C130.359 65.8348 127.979 50.2148 117.379 45.5648L117.409 45.5848Z" fill="#37B7C4"/>
</svg>
